<?xml version="1.0" encoding="UTF-8"?>
<svg id="Layer_1" xmlns="http://www.w3.org/2000/svg" version="1.1" viewBox="0 0 1137.82 403">
  <!-- Generator: Adobe Illustrator 30.1.0, SVG Export Plug-In . SVG Version: 2.1.1 Build 136)  -->
  <defs>
    <style>
      .st0 {
        fill: #fff;
      }

      .st1 {
        fill: #85b128;
      }
    </style>
  </defs>
  <path class="st0" d="M354.42,87.4h-201.21c-32.28,0-58.44,26.27-58.44,58.67v112.31c0,32.4,26.16,58.67,58.44,58.67h139.56l88.62,74.84-17.13-75.69c27.59-4.7,48.6-28.79,48.6-57.83v-112.3c0-32.4-26.16-58.67-58.44-58.67h0Z"/>
  <g>
    <path class="st1" d="M484.5,344.96c0,25.82-21.04,46.94-46.75,46.94H66.05c-25.71,0-46.75-21.12-46.75-46.94V58.74c0-25.81,21.04-46.94,46.75-46.94h371.69c25.72,0,46.75,21.12,46.75,46.94v286.22h.01Z"/>
    <path class="st0" d="M354.42,87.4h-201.21c-32.28,0-58.44,26.27-58.44,58.67v112.31c0,32.4,26.16,58.67,58.44,58.67h139.56l88.62,74.84-17.13-75.69c27.59-4.7,48.6-28.79,48.6-57.83v-112.3c0-32.4-26.16-58.67-58.44-58.67h0Z"/>
    <path class="st0" d="M354.42,87.4h-201.21c-32.28,0-58.44,26.27-58.44,58.67v112.31c0,32.4,26.16,58.67,58.44,58.67h139.56l88.62,74.84-17.13-75.69c27.59-4.7,48.6-28.79,48.6-57.83v-112.3c0-32.4-26.16-58.67-58.44-58.67h0Z"/>
    <path class="st1" d="M180.84,213.55v-70.72c0-9.14,1.57-15.95,4.7-20.44,3.14-4.49,7.92-6.74,14.34-6.74s11.21,2.25,14.34,6.74c3.14,4.49,4.7,11.31,4.7,20.44v66.46c0,14.82,2.81,25.97,8.43,33.46,5.62,7.48,14.01,11.23,25.18,11.23s19.47-3.74,25.13-11.23c5.66-7.49,8.49-18.64,8.49-33.46v-66.46c0-9.14,1.57-15.95,4.7-20.44,3.14-4.49,7.88-6.74,14.23-6.74s11.2,2.25,14.34,6.74c3.14,4.49,4.7,11.31,4.7,20.44v70.72c0,24.34-6.31,43.25-18.93,56.72-12.62,13.48-30.17,20.21-52.66,20.21s-40.15-6.74-52.77-20.21c-12.62-13.48-18.92-32.38-18.92-56.72h0Z"/>
    <path class="st1" d="M518.54,209.5v-47.71c0-6.17,1.08-10.77,3.23-13.79,2.15-3.03,5.43-4.55,9.84-4.55s7.69,1.51,9.84,4.55c2.15,3.03,3.23,7.63,3.23,13.79v44.84c0,10,1.93,17.52,5.79,22.58,3.86,5.05,9.62,7.58,17.29,7.58s13.36-2.53,17.25-7.58c3.88-5.05,5.83-12.58,5.83-22.58v-44.84c0-6.17,1.08-10.77,3.23-13.79,2.15-3.03,5.41-4.55,9.77-4.55s7.69,1.51,9.84,4.55c2.15,3.03,3.23,7.63,3.23,13.79v47.71c0,16.42-4.33,29.18-12.99,38.27s-20.71,13.64-36.15,13.64-27.56-4.55-36.23-13.64c-8.67-9.08-13-21.84-13-38.27h0Z"/>
    <path class="st1" d="M663.36,241.21c0,6.17-1.08,10.75-3.23,13.76-2.15,3-5.43,4.51-9.84,4.51s-7.69-1.5-9.84-4.51-3.23-7.59-3.23-13.76v-80.36c0-5.8,1-10.13,2.99-12.98s5.04-4.27,9.13-4.27c2.62,0,5,.63,7.13,1.9s4.37,3.41,6.73,6.41l48.2,62.87v-53c0-6.17,1.08-10.77,3.23-13.79,2.15-3.03,5.43-4.55,9.84-4.55s7.69,1.51,9.84,4.55c2.15,3.03,3.23,7.63,3.23,13.79v82.3c0,5.49-.97,9.55-2.91,12.16-1.94,2.62-4.96,3.92-9.06,3.92-2.73,0-5.28-.75-7.64-2.25s-4.8-3.89-7.32-7.15l-47.25-61.63v52.08h0Z"/>
    <path class="st1" d="M784.64,241.21c0,6.17-1.08,10.75-3.23,13.76-2.15,3-5.43,4.51-9.84,4.51s-7.69-1.5-9.84-4.51-3.23-7.59-3.23-13.76v-79.42c0-6.17,1.08-10.77,3.23-13.79,2.15-3.03,5.43-4.55,9.84-4.55s7.69,1.51,9.84,4.55c2.15,3.03,3.23,7.63,3.23,13.79v79.42h0Z"/>
    <path class="st1" d="M893.94,182.93c1-3.32,2.52-5.87,4.57-7.66s4.52-2.68,7.4-2.68c3.57,0,6.44,1.13,8.62,3.38s3.27,5.22,3.27,8.9c0,.99-.13,2.07-.39,3.27-.26,1.19-.76,2.85-1.5,4.97l-19.53,54.79c-1.63,4.45-3.56,7.62-5.79,9.48-2.23,1.86-5.13,2.8-8.7,2.8-3.83,0-7.06-1.11-9.69-3.34-2.62-2.23-4.51-5.47-5.67-9.71l-10.47-39.94-9.84,40.72c-.95,3.83-2.69,6.84-5.24,9.01-2.55,2.18-5.63,3.26-9.25,3.26-3.88,0-6.97-.97-9.25-2.92-2.28-1.94-4.32-5.32-6.1-10.14l-20.16-55.64c-.47-1.35-.83-2.56-1.06-3.65-.24-1.09-.35-2.12-.35-3.11,0-3.52,1.17-6.48,3.5-8.86,2.34-2.38,5.24-3.57,8.7-3.57,3.26,0,5.94,1.01,8.07,3.03s3.79,5.1,5,9.25l13.39,45.85,10.87-46.01c.84-3.68,2.28-6.49,4.33-8.43s4.52-2.92,7.4-2.92c3.26,0,5.98,1,8.19,2.99s3.78,4.88,4.73,8.66l11.57,45,13.38-46.78h0Z"/>
    <path class="st1" d="M952.3,240.9c0,6.22-1.02,10.82-3.07,13.79-2.05,2.98-5.2,4.47-9.45,4.47s-7.51-1.5-9.61-4.51-3.15-7.59-3.15-13.76v-50.44c0-6.17,1.04-10.74,3.11-13.72s5.29-4.47,9.65-4.47,7.4,1.49,9.45,4.47,3.07,7.55,3.07,13.72v50.45h0ZM925.05,151.14c0-3.99,1.44-7.41,4.33-10.26s6.35-4.27,10.39-4.27,7.4,1.43,10.24,4.27c2.84,2.85,4.25,6.27,4.25,10.26s-1.4,7.46-4.21,10.26c-2.81,2.8-6.23,4.2-10.28,4.2s-7.64-1.4-10.47-4.2c-2.83-2.8-4.25-6.22-4.25-10.26h0Z"/>
    <path class="st1" d="M994.91,260.48c-9.08,0-16.6-1.79-22.56-5.36-5.96-3.58-8.94-8-8.94-13.29,0-3.16.95-5.83,2.84-8,1.89-2.18,4.17-3.26,6.85-3.26s6.61,1.22,11.81,3.65c5.2,2.44,9.11,3.65,11.73,3.65,2.1,0,3.81-.49,5.12-1.48,1.31-.99,1.96-2.2,1.96-3.65,0-2.49-4.07-5.34-12.2-8.55l-1.65-.62c-9.29-3.83-15.64-7.63-19.06-11.39-3.41-3.76-5.12-8.51-5.12-14.26,0-7.72,3.01-14.16,9.02-19.31s13.61-7.73,22.8-7.73c8.3,0,15.33,1.74,21.11,5.21,5.77,3.47,8.66,7.57,8.66,12.28,0,2.95-1.01,5.44-3.03,7.46s-4.5,3.03-7.44,3.03c-1.95,0-5.24-1.01-9.89-3.03-4.64-2.02-8.17-3.03-10.59-3.03-1.73,0-3.12.4-4.17,1.2-1.05.8-1.57,1.85-1.57,3.15,0,2.33,3.36,4.77,10.08,7.3,3.15,1.19,5.65,2.2,7.48,3.03,7.62,3.37,13.04,6.93,16.27,10.68,3.22,3.76,4.84,8.3,4.84,13.64,0,8.19-3.24,15.01-9.73,20.48-6.5,5.47-14.7,8.2-24.62,8.2h0Z"/>
    <path class="st1" d="M1061.84,222.72c.58,4.71,2.55,8.39,5.91,11.03,3.36,2.64,7.8,3.96,13.31,3.96,4.77,0,10.09-1.36,15.94-4.08,5.86-2.72,9.47-4.08,10.83-4.08,3,0,5.44.91,7.33,2.72s2.83,4.15,2.83,6.99c0,5.39-3.8,10.25-11.42,14.57-7.61,4.33-16.56,6.49-26.85,6.49-12.55,0-23.02-4.22-31.42-12.67-8.4-8.44-12.6-19.04-12.6-31.78s4.08-23.47,12.24-32.02c8.17-8.55,18.34-12.82,30.52-12.82s21.6,4.02,29.53,12.05,11.89,17.85,11.89,29.45c0,3.78-.86,6.42-2.6,7.93-1.73,1.5-5.06,2.25-10,2.25h-45.44ZM1061.53,206.32h33.55c-.32-4.25-2.05-7.8-5.2-10.64-3.15-2.85-6.91-4.27-11.26-4.27s-8.01,1.35-11.11,4.04c-3.09,2.68-5.09,6.31-5.98,10.87h0Z"/>
  </g>
</svg>